<svg xmlns="http://www.w3.org/2000/svg" viewBox="0 0 1200 800">
  <defs>
    <linearGradient id="gradient" x1="0%" y1="0%" x2="100%" y2="100%">
      <stop offset="0%" stop-color="#4facfe" />
      <stop offset="100%" stop-color="#00f2fe" />
    </linearGradient>
  </defs>
  <rect width="100%" height="100%" fill="url(#gradient)" />
  <path fill="rgba(255, 255, 255, 0.1)" d="M0,192L48,197.3C96,203,192,213,288,229.3C384,245,480,267,576,250.7C672,235,768,181,864,181.3C960,181,1056,235,1152,234.7C1248,235,1344,181,1392,154.7L1440,128L1440,320L1392,320C1344,320,1248,320,1152,320C1056,320,960,320,864,320C768,320,672,320,576,320C480,320,384,320,288,320C192,320,96,320,48,320L0,320Z"></path>
    <path d="M200,400 Q300,500 400,400 T600,400 T800,400 T1000,400" stroke="white" stroke-width="2" fill="none" />
    <circle cx="200" cy="300" r="5" fill="white" />
    <circle cx="400" cy="300" r="5" fill="white" />
    <circle cx="600" cy="300" r="5" fill="white" />
    <circle cx="800" cy="300" r="5" fill="white" />
    <circle cx="1000" cy="300" r="5" fill="white" />
    <circle cx="200" cy="400" r="5" fill="white" />
    <circle cx="400" cy="400" r="5" fill="white" />
    <circle cx="600" cy="400" r="5" fill="white" />
    <circle cx="800" cy="400" r="5" fill="white" />
    <circle cx="1000" cy="400" r="5" fill="white" />
  </g>
</svg>